# xmcd
#
# Track frame offsets:
#   150
#   1959
#   14034
#   26490
#   40287
#   51665
#   64537
#   77664
#   88887
#   99621
#   112003
#   129046
#   140754
#   155275
#   168432
#   181666
#   194280
#   205696
#   221255
#   235467
#
# Disc length: 3344 seconds
#
# Revision: 0
# Processed by: cddbd v1.5.2PL0 Copyright (c) Steve Scherf et al.
# Submitted via: uFREEDB ActiveX Control 1.5
#
DISCID=0f0d0e14
DTITLE=Bonde Sertanejo - ao vivo
DYEAR=2007
DGENRE=Country
TTITLE0=abertura
TTITLE1=rebola
TTITLE2=louco de desejo
TTITLE3=deixaria tudo
TTITLE4=psiu
TTITLE5=horizonte azul
TTITLE6=mulher boa da porra
TTITLE7=piradona
TTITLE8=quem diria heim
TTITLE9=alfabeto do amor
TTITLE10=declaracao de amor
TTITLE11=pago pra ver
TTITLE12=diz que vai ficar comigo
TTITLE13=fica comigo agora
TTITLE14=amor de trez
TTITLE15=to fora
TTITLE16=vem me namorar
TTITLE17=sabor de maca
TTITLE18=eu quero e sonhar
TTITLE19=depois do casamento
EXTD=
EXTT0=
EXTT1=
EXTT2=
EXTT3=
EXTT4=
EXTT5=
EXTT6=
EXTT7=
EXTT8=
EXTT9=
EXTT10=
EXTT11=
EXTT12=
EXTT13=
EXTT14=
EXTT15=
EXTT16=
EXTT17=
EXTT18=
EXTT19=
PLAYORDER=
